# xmcd
#
# Track frame offsets:
#	150
#	14756
#	32944
#	54968
#	77576
#	100963
#	118884
#	135261
#	153101
#	169097
#	185455
#	202688
#	223163
#
# Disc length: 3296 seconds
#
# Revision: 1
# Processed by: cddbd v1.5.2PL0 Copyright (c) Steve Scherf et al.
# Submitted via: audiograbber 1.83.01
#
DISCID=a80cde0d
DTITLE=West Of Eden - Look To West
DYEAR=2016
DGENRE=Country
TTITLE0=Going To Hull
TTITLE1=Raini Town
TTITLE2=Oh, I Miss My Home
TTITLE3=Wilson Line
TTITLE4=Sweet Old Country
TTITLE5=Páddy Fahey´s Sweel
TTITLE6=The List
TTITLE7=The Crying Stairs
TTITLE8=Look To The West
TTITLE9=Please Mister Agent
TTITLE10=Tekla´s Tune
TTITLE11=The Ticketless Man
TTITLE12=The Final Cut
EXTD=
EXTT0=
EXTT1=
EXTT2=
EXTT3=
EXTT4=
EXTT5=
EXTT6=
EXTT7=
EXTT8=
EXTT9=
EXTT10=
EXTT11=
EXTT12=
PLAYORDER=
